<?xml version="1.0" standalone="no"?>
<!DOCTYPE svg PUBLIC "-//W3C//DTD SVG 20010904//EN"
 "http://www.w3.org/TR/2001/REC-SVG-20010904/DTD/svg10.dtd">
<svg version="1.0" xmlns="http://www.w3.org/2000/svg"
 width="191.000000pt" height="180.000000pt" viewBox="0 0 191.000000 180.000000"
 preserveAspectRatio="xMidYMid meet">

<g transform="translate(0.000000,180.000000) scale(0.100000,-0.100000)"
fill="#000000" stroke="none">
<path d="M245 1093 c9 -37 51 -92 79 -103 16 -7 8 -9 -31 -9 -52 -1 -53 -2
-53 -31 0 -29 2 -30 46 -30 l46 0 -33 -27 c-29 -25 -59 -77 -59 -103 0 -5 13
-10 29 -10 22 0 31 6 37 23 7 25 33 57 46 57 4 0 8 -18 8 -40 0 -39 1 -40 34
-40 33 0 34 1 32 40 -2 27 2 40 10 40 16 0 44 -39 44 -62 0 -13 8 -18 30 -18
24 0 30 4 30 20 0 31 -26 75 -57 99 l-28 20 43 1 c40 0 42 1 42 30 0 29 -1 30
-47 30 l-48 0 32 20 c34 20 63 66 63 100 0 16 -6 20 -30 20 -22 0 -30 -5 -30
-18 0 -23 -28 -62 -44 -62 -9 0 -13 13 -12 38 1 35 -1 37 -31 40 -32 3 -33 2
-33 -37 0 -23 -4 -41 -8 -41 -13 0 -39 32 -46 58 -6 16 -15 22 -38 22 -28 0
-30 -2 -23 -27z"/>
<path d="M610 1003 c0 -177 30 -222 150 -225 80 -3 123 14 150 57 17 28 20 50
20 159 l0 126 -50 0 -50 0 0 -120 c0 -116 -1 -120 -25 -136 -33 -21 -73 -11
-85 22 -6 14 -10 72 -10 130 l0 104 -50 0 -50 0 0 -117z"/>
<path d="M980 1081 l0 -40 53 -3 52 -3 3 -127 3 -128 49 0 50 0 0 130 0 130
55 0 55 0 0 40 0 40 -160 0 -160 0 0 -39z"/>
<path d="M1348 951 l-3 -171 47 0 47 0 3 91 3 92 63 -92 63 -91 50 0 49 0 0
170 0 170 -50 0 -49 0 -3 -91 -3 -90 -61 88 c-60 88 -60 88 -107 91 l-46 3 -3
-170z"/>
<path d="M1062 728 c-7 -7 -12 -18 -12 -25 0 -22 -28 -14 -33 10 -4 19 -4 18
-6 -5 -1 -25 2 -27 37 -26 20 0 43 5 50 11 8 6 12 6 12 -2 0 -6 9 -11 20 -11
13 0 20 7 20 20 0 23 -31 41 -38 21 -3 -9 -8 -8 -21 3 -13 12 -20 13 -29 4z
m18 -24 c0 -8 -5 -12 -10 -9 -6 4 -8 11 -5 16 9 14 15 11 15 -7z m57 1 c0 -8
-4 -15 -9 -15 -4 0 -8 7 -8 15 0 8 4 15 8 15 5 0 9 -7 9 -15z"/>
<path d="M241 708 c-1 -22 4 -28 19 -28 15 0 20 6 19 28 -2 23 -2 24 -6 5 -2
-13 -8 -23 -13 -23 -5 0 -11 10 -13 23 -4 19 -4 18 -6 -5z"/>
<path d="M290 703 c0 -20 3 -24 9 -14 6 9 11 10 15 2 12 -19 24 -12 22 14 -1
27 -11 33 -19 13 -4 -10 -6 -10 -6 0 -2 25 -21 11 -21 -15z"/>
<path d="M352 705 c0 -16 2 -22 5 -12 2 9 2 23 0 30 -3 6 -5 -1 -5 -18z"/>
<path d="M371 720 c0 -8 4 -22 9 -30 9 -13 11 -13 20 0 5 8 9 22 9 30 -1 11
-3 10 -6 -2 -2 -10 -8 -18 -13 -18 -5 0 -11 8 -13 18 -3 12 -5 13 -6 2z"/>
<path d="M420 705 c0 -19 5 -25 23 -24 21 0 21 1 2 8 l-20 8 20 5 20 6 -20 2
-20 1 20 9 c19 8 19 9 -2 9 -18 1 -23 -5 -23 -24z"/>
<path d="M470 703 c0 -22 2 -25 10 -13 6 10 10 11 10 3 0 -7 4 -13 8 -13 16 0
5 45 -11 48 -13 3 -17 -4 -17 -25z"/>
<path d="M520 715 c0 -8 6 -15 13 -15 8 0 7 -3 -3 -10 -10 -6 -5 -9 18 -8 27
1 32 5 32 25 0 27 -16 31 -23 6 -4 -17 -5 -17 -6 0 -1 21 -31 23 -31 2z"/>
<path d="M590 706 c0 -22 4 -24 44 -23 37 0 43 3 38 19 -7 28 -21 32 -30 7
l-9 -23 -5 22 c-8 30 -38 29 -38 -2z m30 -7 c0 -5 -4 -9 -10 -9 -5 0 -10 7
-10 16 0 8 5 12 10 9 6 -3 10 -10 10 -16z"/>
<path d="M690 705 c0 -20 4 -26 18 -23 9 2 17 12 17 23 0 11 -8 21 -17 23 -14
3 -18 -3 -18 -23z m17 -7 c-3 -8 -6 -5 -6 6 -1 11 2 17 5 13 3 -3 4 -12 1 -19z"/>
<path d="M758 723 c6 -2 12 -14 13 -26 0 -21 1 -21 11 3 11 25 11 25 15 3 3
-16 11 -23 26 -23 18 0 19 2 7 10 -13 9 -13 10 0 10 12 0 13 2 1 9 -11 7 -11
9 0 14 8 3 -8 5 -36 5 -27 0 -44 -2 -37 -5z"/>
<path d="M854 715 c-3 -8 -3 -19 1 -25 8 -13 35 -13 35 0 0 5 -7 7 -16 3 -12
-4 -15 -2 -12 8 3 8 11 13 17 11 7 -1 10 2 6 8 -9 15 -25 12 -31 -5z"/>
<path d="M900 704 c0 -20 3 -25 9 -15 6 9 11 10 15 2 12 -19 21 -12 21 14 0
14 -3 25 -7 25 -5 0 -8 -5 -8 -11 0 -8 -5 -8 -15 1 -13 11 -15 8 -15 -16z"/>
<path d="M957 717 c-3 -8 -2 -20 3 -27 11 -18 42 -4 38 17 -4 22 -34 29 -41
10z m33 -18 c0 -5 -4 -9 -10 -9 -5 0 -10 7 -10 16 0 8 5 12 10 9 6 -3 10 -10
10 -16z"/>
<path d="M1162 705 c0 -16 2 -22 5 -12 2 9 2 23 0 30 -3 6 -5 -1 -5 -18z"/>
<path d="M1186 714 c-3 -9 -4 -20 0 -25 7 -13 34 -11 34 2 0 5 -4 7 -10 4 -5
-3 -10 1 -10 10 0 9 5 13 10 10 6 -3 10 -1 10 4 0 17 -27 13 -34 -5z"/>
<path d="M1243 713 c-3 -10 -8 -21 -9 -24 -2 -4 7 -6 20 -6 18 0 22 4 19 18
-8 27 -22 33 -30 12z"/>
<path d="M1310 704 c0 -22 3 -26 10 -14 6 10 10 11 10 3 0 -7 5 -13 10 -13 6
0 10 12 9 28 0 15 -3 21 -6 14 -4 -10 -8 -10 -19 -1 -11 9 -14 6 -14 -17z"/>
<path d="M1366 714 c-10 -25 -7 -30 14 -30 11 0 20 3 20 7 0 15 -12 39 -20 39
-4 0 -11 -7 -14 -16z"/>
<path d="M1414 715 c-3 -8 -3 -19 1 -25 8 -13 35 -13 35 0 0 5 -7 7 -16 3 -12
-4 -15 -2 -12 8 3 8 11 13 17 11 7 -1 10 2 6 8 -9 15 -25 12 -31 -5z"/>
<path d="M1462 705 c0 -16 2 -22 5 -12 2 9 2 23 0 30 -3 6 -5 -1 -5 -18z"/>
<path d="M1484 715 c-4 -9 -2 -21 4 -27 15 -15 44 -1 40 19 -4 23 -36 29 -44
8z m30 -16 c-3 -5 -10 -7 -15 -3 -5 3 -7 10 -3 15 3 5 10 7 15 3 5 -3 7 -10 3
-15z"/>
<path d="M1541 704 c0 -16 3 -23 6 -16 4 10 8 10 19 1 11 -9 14 -6 13 17 0 16
-3 23 -6 16 -4 -10 -8 -10 -19 -1 -11 9 -14 6 -13 -17z"/>
<path d="M1600 721 c0 -5 -2 -16 -5 -23 -4 -9 2 -14 15 -14 11 0 20 6 20 14 0
7 -4 10 -10 7 -6 -3 -7 1 -4 9 3 9 1 16 -5 16 -6 0 -11 -4 -11 -9z"/>
<path d="M1641 708 c-1 -22 3 -28 21 -28 19 0 20 2 6 13 -9 6 -18 19 -21 27
-3 8 -6 3 -6 -12z"/>
</g>
</svg>
