<?xml version="1.0" standalone="no"?>
<!DOCTYPE svg PUBLIC "-//W3C//DTD SVG 20010904//EN"
 "http://www.w3.org/TR/2001/REC-SVG-20010904/DTD/svg10.dtd">
<svg version="1.0" xmlns="http://www.w3.org/2000/svg"
 width="191.000000pt" height="180.000000pt" viewBox="0 0 191.000000 180.000000"
 preserveAspectRatio="xMidYMid meet">
<metadata>
Created by potrace 1.16, written by Peter Selinger 2001-2019
</metadata>
<g transform="translate(0.000000,180.000000) scale(0.100000,-0.100000)"
fill="#000000" stroke="none">
<path d="M245 1093 c9 -37 51 -92 79 -103 16 -7 8 -9 -31 -9 -52 -1 -53 -2
-53 -31 0 -29 2 -30 46 -30 l46 0 -33 -27 c-29 -25 -59 -77 -59 -103 0 -5 13
-10 29 -10 22 0 31 6 37 23 7 25 33 57 46 57 4 0 8 -18 8 -40 0 -39 1 -40 34
-40 33 0 34 1 32 40 -2 27 2 40 10 40 16 0 44 -39 44 -62 0 -13 8 -18 30 -18
24 0 30 4 30 20 0 31 -26 75 -57 99 l-28 20 43 1 c40 0 42 1 42 30 0 29 -1 30
-47 30 l-48 0 32 20 c34 20 63 66 63 100 0 16 -6 20 -30 20 -22 0 -30 -5 -30
-18 0 -23 -28 -62 -44 -62 -9 0 -13 13 -12 38 1 35 -1 37 -31 40 -32 3 -33 2
-33 -37 0 -23 -4 -41 -8 -41 -13 0 -39 32 -46 58 -6 16 -15 22 -38 22 -28 0
-30 -2 -23 -27z"/>
<path d="M610 1003 c0 -177 30 -222 150 -225 80 -3 123 14 150 57 17 28 20 50
20 159 l0 126 -50 0 -50 0 0 -120 c0 -116 -1 -120 -25 -136 -33 -21 -73 -11
-85 22 -6 14 -10 72 -10 130 l0 104 -50 0 -50 0 0 -117z"/>
<path d="M980 1081 l0 -40 53 -3 52 -3 3 -127 3 -128 49 0 50 0 0 130 0 130
55 0 55 0 0 40 0 40 -160 0 -160 0 0 -39z"/>
<path d="M1348 951 l-3 -171 47 0 47 0 3 91 3 92 63 -92 63 -91 50 0 49 0 0
170 0 170 -50 0 -49 0 -3 -91 -3 -90 -61 88 c-60 88 -60 88 -107 91 l-46 3 -3
-170z"/>
</g>
</svg>
